<svg width="52" height="42" viewBox="0 0 52 42" fill="none" xmlns="http://www.w3.org/2000/svg">
<path d="M29.9365 3.99121H35.9238C36.9823 3.99129 37.9976 4.41177 38.7461 5.16016C39.4946 5.90871 39.915 6.92479 39.915 7.9834V16.2422C37.9863 16.2422 36.4231 17.8067 36.4229 19.7354V26.2217H29.9365C28.068 26.2217 26.542 27.689 26.4482 29.5342L26.4434 29.7139L26.4482 29.8936C26.5418 31.7389 28.0679 33.206 29.9365 33.2061H36.4229V35.8906C36.2581 35.9114 36.0916 35.9238 35.9238 35.9238H3.99121C2.93277 35.9238 1.91741 35.5033 1.16895 34.7549C0.420393 34.0063 0 32.9903 0 31.9316V7.9834C0 6.92479 0.420393 5.90871 1.16895 5.16016C1.91741 4.41177 2.93277 3.99129 3.99121 3.99121H9.97852L13.9707 0H25.9443L29.9365 3.99121ZM19.958 9.97852C17.3115 9.97852 14.7727 11.03 12.9014 12.9014C11.03 14.7727 9.97852 17.3115 9.97852 19.958C9.97864 22.6044 11.0301 25.1424 12.9014 27.0137C14.7727 28.8851 17.3115 29.9365 19.958 29.9365C22.6044 29.9364 25.1424 28.8849 27.0137 27.0137C28.8849 25.1424 29.9364 22.6044 29.9365 19.958C29.9365 17.3115 28.8851 14.7727 27.0137 12.9014C25.1424 11.0301 22.6044 9.97864 19.958 9.97852ZM38.418 28.2168L29.9365 28.2178C29.8848 28.2178 29.8335 28.2205 29.7832 28.2256V28.2246L29.9365 28.2168H38.418ZM19.958 13.9707C21.5457 13.9708 23.0687 14.6009 24.1914 15.7236C25.3142 16.8465 25.9443 18.3701 25.9443 19.958C25.9442 21.5458 25.3141 23.0687 24.1914 24.1914C23.0687 25.3141 21.5458 25.9442 19.958 25.9443C18.3701 25.9443 16.8465 25.3142 15.7236 24.1914C14.6009 23.0687 13.9708 21.5457 13.9707 19.958C13.9707 18.3701 14.6008 16.8465 15.7236 15.7236C16.8465 14.6008 18.3701 13.9707 19.958 13.9707Z" fill="#D2D2D2"/>
<path d="M38.4163 39.6926V31.2107H29.9343C29.1076 31.2107 28.4375 30.5405 28.4375 29.7139C28.4375 28.8872 29.1076 28.217 29.9343 28.217H38.4163V19.7351C38.4163 18.9084 39.0864 18.2383 39.9131 18.2383C40.7397 18.2383 41.4099 18.9084 41.4099 19.7351V28.217H49.8918C50.7185 28.217 51.3887 28.8872 51.3887 29.7139C51.3887 30.5405 50.7185 31.2107 49.8918 31.2107H41.4099V39.6926C41.4099 40.5193 40.7397 41.1894 39.9131 41.1894C39.0864 41.1894 38.4163 40.5193 38.4163 39.6926Z" fill="#767676"/>
<path d="M38.4163 39.6926V31.2107H29.9343C29.1076 31.2107 28.4375 30.5405 28.4375 29.7139C28.4375 28.8872 29.1076 28.217 29.9343 28.217H38.4163V19.7351C38.4163 18.9084 39.0864 18.2383 39.9131 18.2383C40.7397 18.2383 41.4099 18.9084 41.4099 19.7351V28.217H49.8918C50.7185 28.217 51.3887 28.8872 51.3887 29.7139C51.3887 30.5405 50.7185 31.2107 49.8918 31.2107H41.4099V39.6926C41.4099 40.5193 40.7397 41.1894 39.9131 41.1894C39.0864 41.1894 38.4163 40.5193 38.4163 39.6926Z" fill="black" fill-opacity="0.2"/>
</svg>
