<svg width="16" height="14" viewBox="0 0 16 14" fill="none" xmlns="http://www.w3.org/2000/svg">
<path d="M9.55427 13.1428L15.9609 6.70277L9.55427 0.262773C9.49641 0.186791 9.4229 0.124127 9.33872 0.0790245C9.25453 0.0339222 9.16164 0.00743396 9.06633 0.00135285C8.97102 -0.00472825 8.87551 0.00974012 8.78628 0.043778C8.69705 0.0778159 8.61617 0.130629 8.54912 0.198641C8.48207 0.266654 8.43042 0.348278 8.39766 0.437989C8.3649 0.527699 8.3518 0.623401 8.35924 0.718615C8.36668 0.813829 8.3945 0.906333 8.4408 0.989864C8.4871 1.0734 8.5508 1.146 8.6276 1.20277L13.4209 6.03611H0.667604C0.490794 6.03611 0.321225 6.10634 0.196201 6.23137C0.0711765 6.35639 0.000938416 6.52596 0.000938416 6.70277C0.000938416 6.87958 0.0711765 7.04915 0.196201 7.17418C0.321225 7.2992 0.490794 7.36944 0.667604 7.36944H13.4209L8.6276 12.2028C8.50295 12.3283 8.43328 12.4982 8.4339 12.6751C8.43453 12.852 8.5054 13.0215 8.63094 13.1461C8.75647 13.2708 8.92639 13.3404 9.10329 13.3398C9.2802 13.3392 9.44962 13.2683 9.57427 13.1428H9.55427Z" fill="#131313"/>
</svg>
