<svg width="20" height="20" viewBox="0 0 20 20" fill="none" xmlns="http://www.w3.org/2000/svg">
<path d="M15.499 15.499C14.4238 15.499 13.5616 16.3612 13.5616 17.4364C13.5616 17.9502 13.7658 18.443 14.1291 18.8063C14.4924 19.1697 14.9852 19.3738 15.499 19.3738C16.0128 19.3738 16.5056 19.1697 16.869 18.8063C17.2323 18.443 17.4364 17.9502 17.4364 17.4364C17.4364 16.9226 17.2323 16.4298 16.869 16.0665C16.5056 15.7031 16.0128 15.499 15.499 15.499ZM0 0V1.93738H1.93738L5.42466 9.28973L4.10724 11.663C3.96194 11.9342 3.87476 12.2539 3.87476 12.593C3.87476 13.1068 4.07887 13.5996 4.4422 13.9629C4.80553 14.3262 5.29831 14.5303 5.81213 14.5303H17.4364V12.593H6.21898C6.15476 12.593 6.09316 12.5674 6.04774 12.522C6.00233 12.4766 5.97681 12.415 5.97681 12.3508C5.97681 12.3024 5.9865 12.2636 6.00587 12.2345L6.87769 10.6556H14.0944C14.8209 10.6556 15.4603 10.2487 15.7896 9.65783L19.2575 3.39041C19.3253 3.23542 19.3738 3.07074 19.3738 2.90607C19.3738 2.64915 19.2717 2.40277 19.0901 2.2211C18.9084 2.03944 18.662 1.93738 18.4051 1.93738H4.07818L3.16761 0M5.81213 15.499C4.73689 15.499 3.87476 16.3612 3.87476 17.4364C3.87476 17.9502 4.07887 18.443 4.4422 18.8063C4.80553 19.1697 5.29831 19.3738 5.81213 19.3738C6.32596 19.3738 6.81874 19.1697 7.18207 18.8063C7.5454 18.443 7.74951 17.9502 7.74951 17.4364C7.74951 16.9226 7.5454 16.4298 7.18207 16.0665C6.81874 15.7031 6.32596 15.499 5.81213 15.499Z" fill="white"/>
</svg>
