<svg width="18" height="18" viewBox="0 0 18 18" fill="none" xmlns="http://www.w3.org/2000/svg">
<g clip-path="url(#clip0_4575_52947)">
<path d="M2.85653 12.6867C2.96725 12.7978 3.05209 12.932 3.105 13.0797C3.15792 13.2274 3.17761 13.3849 3.16267 13.5411C3.08752 14.2638 2.9454 14.978 2.73813 15.6744C4.22613 15.3299 5.13493 14.9309 5.54773 14.7219C5.78187 14.6033 6.05151 14.5752 6.30507 14.6429C7.03179 14.8375 7.78104 14.935 8.53333 14.9331C12.7957 14.9331 16 11.9389 16 8.53307C16 5.12721 12.7957 2.13307 8.53333 2.13307C4.27093 2.13307 1.06667 5.12827 1.06667 8.53307C1.06667 10.0989 1.7248 11.5517 2.85653 12.6867ZM2.33067 16.852C2.07793 16.902 1.82438 16.9479 1.57013 16.9896C1.3568 17.0237 1.19467 16.8019 1.27893 16.6035C1.37339 16.38 1.4602 16.1534 1.5392 15.924L1.5424 15.9133C1.80693 15.1453 2.0224 14.2621 2.10133 13.4397C0.792533 12.1277 0 10.4104 0 8.53307C0 4.40934 3.8208 1.06641 8.53333 1.06641C13.2459 1.06641 17.0667 4.40934 17.0667 8.53307C17.0667 12.6568 13.2459 15.9997 8.53333 15.9997C7.68811 16.0016 6.84635 15.8919 6.02987 15.6733C5.4752 15.9539 4.2816 16.4648 2.33067 16.852Z" fill="#131313"/>
</g>
<defs>
<clipPath id="clip0_4575_52947">
<rect width="17.0667" height="17.0667" fill="white"/>
</clipPath>
</defs>
</svg>
