<svg width="69" height="69" viewBox="0 0 69 69" fill="none" xmlns="http://www.w3.org/2000/svg">
<path d="M7.66667 69C5.55833 69 3.75411 68.2499 2.254 66.7498C0.753889 65.2497 0.00255556 63.4442 0 61.3333V7.66667C0 5.55833 0.751334 3.75411 2.254 2.254C3.75667 0.753889 5.56089 0.00255556 7.66667 0H61.3333C63.4417 0 65.2472 0.751334 66.7498 2.254C68.2525 3.75667 69.0026 5.56089 69 7.66667V61.3333C69 63.4417 68.2499 65.2472 66.7498 66.7498C65.2497 68.2525 63.4442 69.0026 61.3333 69H7.66667ZM11.5 53.6667H57.5L43.125 34.5L31.625 49.8333L23 38.3333L11.5 53.6667Z" fill="#C5C5C5"/>
</svg>
