<svg width="20" height="20" viewBox="0 0 20 20" fill="none" xmlns="http://www.w3.org/2000/svg">
<path d="M5.55594 18.9738H14.4452C16.1781 18.9738 17.0402 18.0948 17.0402 16.3538V8.75342H10.9799C9.90844 8.75342 9.4063 8.2427 9.4063 7.17127V1.02734H5.55594C3.83165 1.02734 2.96094 1.91449 2.96094 3.65592V16.3538C2.96094 18.1031 3.83165 18.9738 5.55594 18.9738ZM11.0052 7.60663H16.9481C16.8895 7.26342 16.6467 6.92842 16.2534 6.51842L11.6327 1.8227C11.2477 1.42092 10.8963 1.17806 10.5445 1.11913V7.15484C10.5445 7.45591 10.7038 7.60663 11.0052 7.60663ZM6.77808 12.3781C6.43487 12.3781 6.19201 12.1352 6.19201 11.8088C6.19201 11.482 6.43487 11.2395 6.77772 11.2395H13.2313C13.5663 11.2395 13.8259 11.4823 13.8259 11.8084C13.8259 12.1352 13.5663 12.3777 13.2317 12.3777L6.77808 12.3781ZM6.77808 15.567C6.43487 15.567 6.19201 15.3241 6.19201 14.9977C6.19201 14.6713 6.43487 14.4284 6.77772 14.4284H13.2313C13.5663 14.4284 13.8259 14.6713 13.8259 14.9977C13.8259 15.3241 13.5663 15.567 13.2317 15.567H6.77808Z" fill="#3581EA"/>
</svg>
