<svg width="21" height="21" viewBox="0 0 21 21" fill="none" xmlns="http://www.w3.org/2000/svg">
<path fill-rule="evenodd" clip-rule="evenodd" d="M10.7161 18.3479C11.7225 17.4347 12.6538 16.4422 13.5012 15.3799C15.2862 13.1372 16.3721 10.9261 16.4456 8.96C16.4747 8.16094 16.3424 7.36423 16.0567 6.61743C15.771 5.87064 15.3377 5.1891 14.7827 4.61351C14.2277 4.03793 13.5623 3.58012 12.8264 3.26743C12.0905 2.95473 11.2991 2.79357 10.4996 2.79357C9.69998 2.79357 8.9086 2.95473 8.17269 3.26743C7.43679 3.58012 6.77145 4.03793 6.21644 4.61351C5.66143 5.1891 5.22812 5.87064 4.9424 6.61743C4.65668 7.36423 4.52442 8.16094 4.5535 8.96C4.62787 10.9261 5.71462 13.1372 7.49875 15.3799C8.34615 16.4422 9.27753 17.4347 10.2839 18.3479C10.3807 18.4354 10.4527 18.499 10.5 18.5386L10.7161 18.3479ZM9.85425 19.3673C9.85425 19.3673 3.5 14.0157 3.5 8.75C3.5 6.89348 4.2375 5.11301 5.55025 3.80025C6.86301 2.4875 8.64348 1.75 10.5 1.75C12.3565 1.75 14.137 2.4875 15.4497 3.80025C16.7625 5.11301 17.5 6.89348 17.5 8.75C17.5 14.0157 11.1457 19.3673 11.1457 19.3673C10.7922 19.6928 10.2104 19.6893 9.85425 19.3673ZM10.5 11.2C11.1498 11.2 11.7729 10.9419 12.2324 10.4824C12.6919 10.0229 12.95 9.39978 12.95 8.75C12.95 8.10022 12.6919 7.47705 12.2324 7.01759C11.7729 6.55812 11.1498 6.3 10.5 6.3C9.85022 6.3 9.22705 6.55812 8.76759 7.01759C8.30812 7.47705 8.05 8.10022 8.05 8.75C8.05 9.39978 8.30812 10.0229 8.76759 10.4824C9.22705 10.9419 9.85022 11.2 10.5 11.2ZM10.5 12.25C9.57174 12.25 8.6815 11.8813 8.02513 11.2249C7.36875 10.5685 7 9.67826 7 8.75C7 7.82174 7.36875 6.9315 8.02513 6.27513C8.6815 5.61875 9.57174 5.25 10.5 5.25C11.4283 5.25 12.3185 5.61875 12.9749 6.27513C13.6313 6.9315 14 7.82174 14 8.75C14 9.67826 13.6313 10.5685 12.9749 11.2249C12.3185 11.8813 11.4283 12.25 10.5 12.25Z" fill="#131313"/>
</svg>
