<svg width="23" height="22" viewBox="0 0 23 22" fill="none" xmlns="http://www.w3.org/2000/svg">
<path d="M20.8438 6.1875V15.8125C20.8438 16.1772 20.6923 16.5269 20.4227 16.7848C20.1531 17.0426 19.7875 17.1875 19.4062 17.1875H3.59375C3.2125 17.1875 2.84687 17.0426 2.57728 16.7848C2.3077 16.5269 2.15625 16.1772 2.15625 15.8125V6.1875M20.8438 6.1875C20.8438 5.82283 20.6923 5.47309 20.4227 5.21523C20.1531 4.95737 19.7875 4.8125 19.4062 4.8125H3.59375C3.2125 4.8125 2.84687 4.95737 2.57728 5.21523C2.3077 5.47309 2.15625 5.82283 2.15625 6.1875M20.8438 6.1875L12.3179 11.8332C12.0776 11.9923 11.7923 12.0775 11.5 12.0775C11.2077 12.0775 10.9224 11.9923 10.6821 11.8332L2.15625 6.1875" stroke="#131313" stroke-width="1.06667" stroke-linecap="round" stroke-linejoin="round"/>
</svg>
