<svg width="24" height="24" viewBox="0 0 24 24" fill="none" xmlns="http://www.w3.org/2000/svg">
<path d="M7 15C6.16667 15 5.45833 14.7083 4.875 14.125C4.29167 13.5417 4 12.8333 4 12C4 11.1667 4.29167 10.4583 4.875 9.875C5.45833 9.29167 6.16667 9 7 9C7.83333 9 8.54167 9.29167 9.125 9.875C9.70833 10.4583 10 11.1667 10 12C10 12.8333 9.70833 13.5417 9.125 14.125C8.54167 14.7083 7.83333 15 7 15ZM7 18C8.28333 18 9.44167 17.6333 10.475 16.9C11.5083 16.1667 12.2333 15.2 12.65 14H13L14.3 15.3C14.4 15.4 14.5083 15.4707 14.625 15.512C14.7417 15.5533 14.8667 15.5743 15 15.575C15.1333 15.5757 15.2583 15.555 15.375 15.513C15.4917 15.471 15.6 15.4 15.7 15.3L17 14L18.75 15.375C18.85 15.4583 18.9627 15.5207 19.088 15.562C19.2133 15.6033 19.3423 15.616 19.475 15.6C19.6077 15.584 19.7287 15.5467 19.838 15.488C19.9473 15.4293 20.043 15.35 20.125 15.25L22.375 12.675C22.4583 12.575 22.521 12.4667 22.563 12.35C22.605 12.2333 22.6257 12.1083 22.625 11.975C22.6243 11.8417 22.5993 11.721 22.55 11.613C22.5007 11.505 22.434 11.409 22.35 11.325L21.325 10.3C21.225 10.2 21.1127 10.125 20.988 10.075C20.8633 10.025 20.734 10 20.6 10H12.65C12.25 8.86667 11.5457 7.91667 10.537 7.15C9.52833 6.38333 8.34933 6 7 6C5.33333 6 3.91667 6.58333 2.75 7.75C1.58333 8.91667 1 10.3333 1 12C1 13.6667 1.58333 15.0833 2.75 16.25C3.91667 17.4167 5.33333 18 7 18Z" fill="#767676"/>
<path d="M7 15C6.16667 15 5.45833 14.7083 4.875 14.125C4.29167 13.5417 4 12.8333 4 12C4 11.1667 4.29167 10.4583 4.875 9.875C5.45833 9.29167 6.16667 9 7 9C7.83333 9 8.54167 9.29167 9.125 9.875C9.70833 10.4583 10 11.1667 10 12C10 12.8333 9.70833 13.5417 9.125 14.125C8.54167 14.7083 7.83333 15 7 15ZM7 18C8.28333 18 9.44167 17.6333 10.475 16.9C11.5083 16.1667 12.2333 15.2 12.65 14H13L14.3 15.3C14.4 15.4 14.5083 15.4707 14.625 15.512C14.7417 15.5533 14.8667 15.5743 15 15.575C15.1333 15.5757 15.2583 15.555 15.375 15.513C15.4917 15.471 15.6 15.4 15.7 15.3L17 14L18.75 15.375C18.85 15.4583 18.9627 15.5207 19.088 15.562C19.2133 15.6033 19.3423 15.616 19.475 15.6C19.6077 15.584 19.7287 15.5467 19.838 15.488C19.9473 15.4293 20.043 15.35 20.125 15.25L22.375 12.675C22.4583 12.575 22.521 12.4667 22.563 12.35C22.605 12.2333 22.6257 12.1083 22.625 11.975C22.6243 11.8417 22.5993 11.721 22.55 11.613C22.5007 11.505 22.434 11.409 22.35 11.325L21.325 10.3C21.225 10.2 21.1127 10.125 20.988 10.075C20.8633 10.025 20.734 10 20.6 10H12.65C12.25 8.86667 11.5457 7.91667 10.537 7.15C9.52833 6.38333 8.34933 6 7 6C5.33333 6 3.91667 6.58333 2.75 7.75C1.58333 8.91667 1 10.3333 1 12C1 13.6667 1.58333 15.0833 2.75 16.25C3.91667 17.4167 5.33333 18 7 18Z" fill="black" fill-opacity="0.2"/>
</svg>
