<svg width="24" height="24" viewBox="0 0 24 24" fill="none" xmlns="http://www.w3.org/2000/svg">
<path d="M15.1025 5.11055L13.6928 6.5202L17.4791 10.3064L18.8887 8.89679C19.6169 8.16867 19.6169 6.98911 18.8887 6.26098L17.7412 5.11055C17.0131 4.38242 15.8335 4.38242 15.1054 5.11055H15.1025ZM13.0346 7.17842L6.24558 13.9704C5.94268 14.2733 5.72133 14.649 5.59901 15.0596L4.56799 18.5634C4.49517 18.8109 4.56216 19.076 4.74274 19.2565C4.92331 19.4371 5.18835 19.5041 5.433 19.4342L8.93673 18.4032C9.34739 18.2809 9.72311 18.0595 10.026 17.7566L16.8209 10.9647L13.0346 7.17842Z" fill="#131313"/>
</svg>
