<svg width="23" height="23" viewBox="0 0 23 23" fill="none" xmlns="http://www.w3.org/2000/svg">
<path d="M11.5019 5.08431C11.5019 4.80423 11.5019 4.66537 11.5952 4.57901C11.6909 4.49265 11.8216 4.50316 12.0853 4.52533C13.2609 4.62351 14.3926 5.01712 15.3754 5.66961C16.3582 6.3221 17.1601 7.21232 17.7069 8.25762C18.2536 9.30292 18.5274 10.4694 18.5028 11.6488C18.4782 12.8282 18.1561 13.9823 17.5662 15.0039C16.9763 16.0255 16.1379 16.8815 15.1288 17.4924C14.1197 18.1034 12.9726 18.4495 11.7939 18.4986C10.6153 18.5476 9.44336 18.2981 8.38693 17.7732C7.3305 17.2483 6.42382 16.465 5.75105 15.496C5.59935 15.2789 5.52466 15.1704 5.55267 15.0455C5.58068 14.9207 5.70204 14.8518 5.9436 14.7118L11.2101 11.6707C11.3525 11.589 11.4237 11.5481 11.4622 11.4804C11.5019 11.4128 11.5019 11.3299 11.5019 11.1654V5.08431Z" fill="white"/>
<path d="M11.5027 22.0054C17.3032 22.0054 22.0054 17.3032 22.0054 11.5027C22.0054 5.70221 17.3032 1 11.5027 1C5.70221 1 1 5.70221 1 11.5027C1 17.3032 5.70221 22.0054 11.5027 22.0054Z" stroke="white" stroke-width="2"/>
</svg>
