<svg width="41" height="41" viewBox="0 0 41 41" fill="none" xmlns="http://www.w3.org/2000/svg">
<path fill-rule="evenodd" clip-rule="evenodd" d="M14.2939 7.72852C12.3481 7.72852 10.482 8.5182 9.10617 9.92385C7.7303 11.3295 6.95734 13.236 6.95734 15.2238C6.95734 17.2117 7.7303 19.1182 9.10617 20.5238C10.482 21.9295 12.3481 22.7192 14.2939 22.7192C16.2397 22.7192 18.1058 21.9295 19.4816 20.5238C20.8575 19.1182 21.6305 17.2117 21.6305 15.2238C21.6305 13.236 20.8575 11.3295 19.4816 9.92385C18.1058 8.5182 16.2397 7.72852 14.2939 7.72852ZM10.6256 24.593C8.67985 24.593 6.81376 25.3827 5.43789 26.7883C4.06202 28.194 3.28906 30.1004 3.28906 32.0883V33.9622C3.28906 34.9561 3.67554 35.9093 4.36348 36.6122C5.05141 37.315 5.98445 37.7098 6.95734 37.7098H21.6305C22.6033 37.7098 23.5364 37.315 24.2243 36.6122C24.9123 35.9093 25.2987 34.9561 25.2987 33.9622V32.0883C25.2987 30.1004 24.5258 28.194 23.1499 26.7883C21.774 25.3827 19.908 24.593 17.9622 24.593H10.6256Z" fill="#A600FF"/>
<path d="M31.1036 3.13819C31.0397 3.00747 30.9415 2.89752 30.8199 2.82068C30.6982 2.74383 30.5581 2.70312 30.415 2.70312C30.272 2.70312 30.1319 2.74383 30.0102 2.82068C29.8886 2.89752 29.7903 3.00747 29.7265 3.13819L27.6679 7.34361L23.5528 9.44684C23.4248 9.51211 23.3172 9.61251 23.242 9.73678C23.1668 9.86104 23.127 10.0043 23.127 10.1504C23.127 10.2965 23.1668 10.4397 23.242 10.564C23.3172 10.6882 23.4248 10.7886 23.5528 10.8539L27.6689 12.9571L29.7275 17.1625C29.7914 17.2933 29.8896 17.4032 30.0113 17.4801C30.1329 17.5569 30.2731 17.5976 30.4161 17.5976C30.5591 17.5976 30.6993 17.5569 30.8209 17.4801C30.9425 17.4032 31.0408 17.2933 31.1047 17.1625L33.1632 12.9571L37.2794 10.8539C37.4073 10.7886 37.5149 10.6882 37.5901 10.564C37.6653 10.4397 37.7052 10.2965 37.7052 10.1504C37.7052 10.0043 37.6653 9.86104 37.5901 9.73678C37.5149 9.61251 37.4073 9.51211 37.2794 9.44684L33.1632 7.34361L31.1036 3.13819Z" fill="#FDD835"/>
<path d="M31.6788 6.25109L30.5722 3.92481L30.4539 6.49814C30.4346 6.91667 30.8138 7.24186 31.2245 7.15902C31.6352 7.07619 31.8587 6.62944 31.6788 6.25109Z" fill="#FFFF8D"/>
<path d="M34.253 11.3613L36.4944 10.2657L34.0011 10.1777C33.5956 10.1633 33.2846 10.5339 33.3691 10.9308C33.4535 11.3277 33.8885 11.5395 34.253 11.3613Z" fill="#F4B400"/>
<rect x="24.6973" y="1.47461" width="0.348592" height="4.33882" rx="0.174296" transform="rotate(-39.3574 24.6973 1.47461)" fill="url(#paint0_linear_5129_11408)"/>
<rect x="25.1465" y="3.22852" width="0.29443" height="2.9913" rx="0.147215" transform="rotate(-39.3574 25.1465 3.22852)" fill="url(#paint1_linear_5129_11408)"/>
<rect x="22.6934" y="1.21289" width="0.29443" height="4.91988" rx="0.147215" transform="rotate(-39.3574 22.6934 1.21289)" fill="url(#paint2_linear_5129_11408)"/>
<defs>
<linearGradient id="paint0_linear_5129_11408" x1="24.8716" y1="1.47461" x2="24.8716" y2="5.81343" gradientUnits="userSpaceOnUse">
<stop stop-color="#FDD835" stop-opacity="0"/>
<stop offset="1" stop-color="#FDD835"/>
</linearGradient>
<linearGradient id="paint1_linear_5129_11408" x1="25.2937" y1="3.22852" x2="25.2937" y2="6.21981" gradientUnits="userSpaceOnUse">
<stop stop-color="#FDD835" stop-opacity="0"/>
<stop offset="1" stop-color="#FDD835"/>
</linearGradient>
<linearGradient id="paint2_linear_5129_11408" x1="22.8406" y1="1.21289" x2="22.8406" y2="6.13277" gradientUnits="userSpaceOnUse">
<stop stop-color="#FDD835" stop-opacity="0"/>
<stop offset="1" stop-color="#FDD835"/>
</linearGradient>
</defs>
</svg>
