<svg width="34" height="34" viewBox="0 0 34 34" fill="none" xmlns="http://www.w3.org/2000/svg">
<path d="M15.5143 17.9912L13.4602 15.9725C13.2004 15.7128 12.876 15.5829 12.4869 15.5829C12.0978 15.5829 11.7611 15.7246 11.4768 16.0079C11.2171 16.2676 11.0872 16.5982 11.0872 16.9996C11.0872 17.401 11.2171 17.7315 11.4768 17.9912L14.5227 21.0371C14.806 21.3204 15.1365 21.4621 15.5143 21.4621C15.8921 21.4621 16.2227 21.3204 16.506 21.0371L22.5268 15.0162C22.8102 14.7329 22.9457 14.4023 22.9334 14.0246C22.9211 13.6468 22.7856 13.3162 22.5268 13.0329C22.2435 12.7496 21.9073 12.6022 21.5182 12.5909C21.129 12.5796 20.7924 12.7151 20.5081 12.9975L15.5143 17.9912ZM11.5477 30.8121L9.49349 27.3412L5.59766 26.4912C5.24349 26.4204 4.96016 26.2376 4.74766 25.943C4.53516 25.6483 4.45252 25.3234 4.49974 24.9683L4.88932 20.9662L2.23307 17.9204C1.99696 17.6607 1.87891 17.3537 1.87891 16.9996C1.87891 16.6454 1.99696 16.3385 2.23307 16.0787L4.88932 13.0329L4.49974 9.03082C4.45252 8.67665 4.53516 8.35176 4.74766 8.05615C4.96016 7.76054 5.24349 7.57779 5.59766 7.5079L9.49349 6.6579L11.5477 3.18707C11.7365 2.88012 11.9963 2.67329 12.3268 2.56657C12.6574 2.45985 12.9879 2.47779 13.3185 2.6204L17.0018 4.17873L20.6852 2.6204C21.0157 2.47873 21.3463 2.46079 21.6768 2.56657C22.0074 2.67235 22.2671 2.87918 22.456 3.18707L24.5102 6.6579L28.406 7.5079C28.7602 7.57873 29.0435 7.76196 29.256 8.05757C29.4685 8.35318 29.5511 8.67759 29.5039 9.03082L29.1143 13.0329L31.7706 16.0787C32.0067 16.3385 32.1247 16.6454 32.1247 16.9996C32.1247 17.3537 32.0067 17.6607 31.7706 17.9204L29.1143 20.9662L29.5039 24.9683C29.5511 25.3225 29.4685 25.6474 29.256 25.943C29.0435 26.2386 28.7602 26.4213 28.406 26.4912L24.5102 27.3412L22.456 30.8121C22.2671 31.119 22.0074 31.3258 21.6768 31.4326C21.3463 31.5393 21.0157 31.5213 20.6852 31.3787L17.0018 29.8204L13.3185 31.3787C12.9879 31.5204 12.6574 31.5383 12.3268 31.4326C11.9963 31.3268 11.7365 31.12 11.5477 30.8121Z" fill="#3581EA"/>
</svg>
