<svg width="24" height="24" viewBox="0 0 24 24" fill="none" xmlns="http://www.w3.org/2000/svg">
<g clip-path="url(#clip0_4575_52959)">
<path d="M0.518405 11.8563C0.517843 13.8728 1.04867 15.8417 2.05802 17.5771L0.421875 23.5066L6.53534 21.9156C8.22625 22.8292 10.1208 23.308 12.046 23.3081H12.0511C18.4066 23.3081 23.5802 18.1748 23.5829 11.8653C23.5841 8.80792 22.3856 5.93295 20.2082 3.76997C18.0311 1.60718 15.1356 0.415458 12.0506 0.414062C5.69431 0.414062 0.521123 5.54709 0.518499 11.8563" fill="url(#paint0_linear_4575_52959)"/>
<path d="M0.108092 11.8527C0.107436 13.9417 0.657284 15.981 1.70262 17.7786L0.0078125 23.9207L6.34049 22.2726C8.08534 23.2168 10.0499 23.7147 12.0489 23.7154H12.0541C18.6376 23.7154 23.997 18.3975 23.9998 11.8621C24.001 8.69488 22.7594 5.71656 20.5041 3.47609C18.2486 1.23591 15.2496 0.00130233 12.0541 0C5.46937 0 0.110716 5.31721 0.108092 11.8527ZM3.87943 17.469L3.64298 17.0965C2.649 15.5277 2.12436 13.7149 2.12511 11.8534C2.12717 6.4213 6.58106 2.00186 12.0578 2.00186C14.71 2.00298 17.2026 3.02921 19.0773 4.89116C20.952 6.7533 21.9836 9.22865 21.9829 11.8614C21.9805 17.2935 17.5265 21.7135 12.0541 21.7135H12.0501C10.2682 21.7126 8.52067 21.2376 6.99661 20.34L6.63392 20.1265L2.87598 21.1045L3.87943 17.469Z" fill="url(#paint1_linear_4575_52959)"/>
<path d="M9.06085 6.89771C8.83724 6.4044 8.60191 6.39445 8.38926 6.3858C8.21513 6.37836 8.01607 6.37892 7.8172 6.37892C7.61814 6.37892 7.29472 6.45324 7.02134 6.74952C6.74768 7.04608 5.97656 7.76273 5.97656 9.22031C5.97656 10.6779 7.04618 12.0866 7.19528 12.2845C7.34458 12.482 9.26019 15.5689 12.2941 16.7564C14.8155 17.7433 15.3286 17.547 15.8758 17.4975C16.4231 17.4482 17.6418 16.7811 17.8905 16.0892C18.1393 15.3975 18.1393 14.8046 18.0647 14.6807C17.9901 14.5572 17.791 14.4831 17.4925 14.335C17.194 14.1869 15.7265 13.4701 15.4529 13.3712C15.1793 13.2724 14.9803 13.2231 14.7813 13.5198C14.5822 13.8159 14.0106 14.4831 13.8364 14.6807C13.6623 14.8787 13.4881 14.9034 13.1897 14.7552C12.891 14.6065 11.9298 14.2941 10.7893 13.2849C9.90198 12.4996 9.30292 11.5298 9.12879 11.2331C8.95467 10.937 9.11015 10.7764 9.25981 10.6288C9.39393 10.496 9.5584 10.2828 9.70779 10.1099C9.85662 9.93687 9.90629 9.81343 10.0058 9.61585C10.1054 9.41808 10.0556 9.24506 9.98107 9.09687C9.90629 8.94868 9.32626 7.48347 9.06085 6.89771Z" fill="white"/>
</g>
<defs>
<linearGradient id="paint0_linear_4575_52959" x1="1158.47" y1="2309.67" x2="1158.47" y2="0.414062" gradientUnits="userSpaceOnUse">
<stop stop-color="#1FAF38"/>
<stop offset="1" stop-color="#60D669"/>
</linearGradient>
<linearGradient id="paint1_linear_4575_52959" x1="1199.61" y1="2392.07" x2="1199.61" y2="0" gradientUnits="userSpaceOnUse">
<stop stop-color="#F9F9F9"/>
<stop offset="1" stop-color="white"/>
</linearGradient>
<clipPath id="clip0_4575_52959">
<rect width="24" height="24" fill="white"/>
</clipPath>
</defs>
</svg>
