<svg width="16" height="16" viewBox="0 0 16 16" fill="none" xmlns="http://www.w3.org/2000/svg">
<path fill-rule="evenodd" clip-rule="evenodd" d="M4.89623 2.67714C6.95882 2.44877 9.04031 2.44877 11.1029 2.67714C12.2449 2.80514 13.1662 3.70447 13.3002 4.85047C13.5446 6.94247 13.5446 9.05581 13.3002 11.1478C13.1662 12.2938 12.2449 13.1931 11.1029 13.3211C9.04031 13.5495 6.95882 13.5495 4.89623 13.3211C3.75423 13.1931 2.8329 12.2938 2.6989 11.1478C2.45453 9.05603 2.45453 6.94291 2.6989 4.85114C2.76668 4.29438 3.02048 3.77683 3.41919 3.38237C3.81789 2.9879 4.33812 2.73963 4.89556 2.6778M7.99956 4.67047C8.13217 4.67047 8.25935 4.72315 8.35312 4.81692C8.44689 4.91068 8.49956 5.03786 8.49956 5.17047V7.49914H10.8282C10.9608 7.49914 11.088 7.55182 11.1818 7.64558C11.2756 7.73935 11.3282 7.86653 11.3282 7.99914C11.3282 8.13174 11.2756 8.25892 11.1818 8.35269C11.088 8.44646 10.9608 8.49914 10.8282 8.49914H8.49956V10.8278C8.49956 10.9604 8.44689 11.0876 8.35312 11.1814C8.25935 11.2751 8.13217 11.3278 7.99956 11.3278C7.86696 11.3278 7.73978 11.2751 7.64601 11.1814C7.55224 11.0876 7.49956 10.9604 7.49956 10.8278V8.49914H5.1709C5.03829 8.49914 4.91111 8.44646 4.81734 8.35269C4.72358 8.25892 4.6709 8.13174 4.6709 7.99914C4.6709 7.86653 4.72358 7.73935 4.81734 7.64558C4.91111 7.55182 5.03829 7.49914 5.1709 7.49914H7.49956V5.17047C7.49956 5.03786 7.55224 4.91068 7.64601 4.81692C7.73978 4.72315 7.86696 4.67047 7.99956 4.67047Z" fill="#3581EA"/>
</svg>
