<svg width="15" height="15" viewBox="0 0 15 15" fill="none" xmlns="http://www.w3.org/2000/svg">
<path fill-rule="evenodd" clip-rule="evenodd" d="M2.165 2.165C1.25 3.08125 1.25 4.55375 1.25 7.5C1.25 10.4462 1.25 11.9194 2.165 12.8344C3.08125 13.75 4.55375 13.75 7.5 13.75C10.4462 13.75 11.9194 13.75 12.8344 12.8344C13.75 11.92 13.75 10.4462 13.75 7.5C13.75 4.55375 13.75 3.08063 12.8344 2.165C11.92 1.25 10.4462 1.25 7.5 1.25C4.55375 1.25 3.08063 1.25 2.165 2.165ZM4.70625 5.91875C4.61739 5.83595 4.49986 5.79087 4.37842 5.79302C4.25699 5.79516 4.14112 5.84435 4.05524 5.93024C3.96935 6.01612 3.92016 6.13199 3.91802 6.25342C3.91587 6.37486 3.96095 6.49239 4.04375 6.58125L5.47687 8.01437C5.68197 8.21933 5.96005 8.33445 6.25 8.33445C6.53995 8.33445 6.81803 8.21933 7.02313 8.01437L8.01437 7.02313C8.02889 7.00857 8.04613 6.99703 8.06511 6.98915C8.0841 6.98128 8.10445 6.97722 8.125 6.97722C8.14555 6.97722 8.1659 6.98128 8.18489 6.98915C8.20387 6.99703 8.22111 7.00857 8.23563 7.02313L9.49312 8.28125H9.0625C8.93818 8.28125 8.81895 8.33064 8.73104 8.41854C8.64314 8.50645 8.59375 8.62568 8.59375 8.75C8.59375 8.87432 8.64314 8.99355 8.73104 9.08146C8.81895 9.16936 8.93818 9.21875 9.0625 9.21875H10.625C10.7493 9.21875 10.8685 9.16936 10.9565 9.08146C11.0444 8.99355 11.0938 8.87432 11.0938 8.75V7.1875C11.0938 7.06318 11.0444 6.94395 10.9565 6.85604C10.8685 6.76814 10.7493 6.71875 10.625 6.71875C10.5007 6.71875 10.3815 6.76814 10.2935 6.85604C10.2056 6.94395 10.1562 7.06318 10.1562 7.1875V7.61875L8.89813 6.36063C8.69303 6.15567 8.41495 6.04055 8.125 6.04055C7.83505 6.04055 7.55697 6.15567 7.35187 6.36063L6.36063 7.35187C6.34611 7.36643 6.32887 7.37797 6.30989 7.38585C6.2909 7.39372 6.27055 7.39778 6.25 7.39778C6.22945 7.39778 6.2091 7.39372 6.19011 7.38585C6.17113 7.37797 6.15389 7.36643 6.13937 7.35187L4.70625 5.91875Z" fill="#CB1414"/>
</svg>
