<svg width="15" height="15" viewBox="0 0 15 15" fill="none" xmlns="http://www.w3.org/2000/svg">
<path d="M5.26375 12.8855C6.36125 13.4618 6.91 13.7493 7.5 13.7493V7.4993L1.64875 4.41992L1.62375 4.4618C1.25 5.09555 1.25 5.88492 1.25 7.46305V7.53617C1.25 9.11367 1.25 9.90305 1.62312 10.5368C1.99687 11.1712 2.66937 11.5243 4.01375 12.2299L5.26375 12.8855Z" fill="#B77E46"/>
<path opacity="0.7" d="M10.9853 2.77L9.73531 2.11375C8.63844 1.53812 8.08969 1.25 7.49969 1.25C6.90906 1.25 6.36094 1.5375 5.26344 2.11375L4.01344 2.77C2.69844 3.46 2.02594 3.8125 1.64844 4.42L7.49969 7.5L13.3509 4.42062C12.9722 3.8125 12.3009 3.46 10.9853 2.77Z" fill="#B77E46"/>
<path opacity="0.5" d="M13.3769 4.4618L13.3512 4.41992L7.5 7.4993V13.7493C8.09 13.7493 8.63875 13.4618 9.73625 12.8855L10.9862 12.2293C12.3306 11.5237 13.0031 11.1712 13.3769 10.5368C13.75 9.90305 13.75 9.11367 13.75 7.5368V7.46367C13.75 5.88555 13.75 5.09555 13.3769 4.4618Z" fill="#B77E46"/>
<path d="M3.95062 2.8018L4.01312 2.7693L4.94625 2.2793L10.6338 5.40742L13.1494 4.15055C13.2348 4.24721 13.3102 4.35096 13.3756 4.4618C13.4694 4.62055 13.5394 4.7893 13.5919 4.97742L11.0925 6.2268V8.1243C11.0925 8.24862 11.0431 8.36785 10.9552 8.45575C10.8673 8.54366 10.7481 8.59305 10.6237 8.59305C10.4994 8.59305 10.3802 8.54366 10.2923 8.45575C10.2044 8.36785 10.155 8.24862 10.155 8.1243V6.69555L7.9675 7.7893V13.6893C7.81441 13.729 7.65691 13.7491 7.49875 13.7493C7.34375 13.7493 7.19063 13.7293 7.03 13.6893V7.7893L1.40625 4.9768C1.45875 4.7893 1.52875 4.62055 1.6225 4.4618C1.6875 4.35096 1.76292 4.24721 1.84875 4.15055L7.49875 6.97555L9.61563 5.91742L3.95062 2.8018Z" fill="#B77E46"/>
</svg>
