<svg width="15" height="15" viewBox="0 0 15 15" fill="none" xmlns="http://www.w3.org/2000/svg">
<path d="M13.3198 4.96289C13.2329 4.87538 13.1295 4.80597 13.0156 4.7587C12.9017 4.71143 12.7796 4.68723 12.6562 4.6875H10.7812V4.21875C10.7812 3.34851 10.4355 2.51391 9.82019 1.89856C9.20484 1.2832 8.37024 0.9375 7.5 0.9375C6.62976 0.9375 5.79516 1.2832 5.17981 1.89856C4.56445 2.51391 4.21875 3.34851 4.21875 4.21875V4.6875H2.34375C2.09511 4.6875 1.85665 4.78627 1.68084 4.96209C1.50502 5.1379 1.40625 5.37636 1.40625 5.625V11.9531C1.40625 13.0957 2.37305 14.0625 3.51562 14.0625H11.4844C12.0371 14.0627 12.5679 13.8466 12.9633 13.4604C13.1623 13.2706 13.3207 13.0424 13.4291 12.7896C13.5374 12.5369 13.5935 12.2648 13.5938 11.9897V5.625C13.5941 5.50201 13.5701 5.38016 13.5231 5.26651C13.4761 5.15286 13.407 5.04966 13.3198 4.96289ZM5.15625 4.21875C5.15625 3.59715 5.40318 3.00101 5.84272 2.56147C6.28226 2.12193 6.8784 1.875 7.5 1.875C8.1216 1.875 8.71774 2.12193 9.15728 2.56147C9.59682 3.00101 9.84375 3.59715 9.84375 4.21875V4.6875H5.15625V4.21875Z" fill="#F2C231"/>
</svg>
